# xmcd
#
# Track frame offsets:
#	150
#	12583
#	29275
#	42223
#	56922
#	69807
#	81295
#	92188
#	104481
#	118330
#	133360
#	146212
#	159005
#	168942
#
# Disc length: 2436 seconds
#
# Revision: 0
# Processed by: cddbd v1.5.2PL0 Copyright (c) Steve Scherf et al.
# Submitted via: EasyCDDAExtractor 15.3.0.1
#
DISCID=c509820e
DTITLE=Esko Rahkonen - Keskiyön Tango Keräilyharvinaisuus LP 1967
DYEAR=1967
DGENRE=Suomi Tango ja Iskelmä
TTITLE0=Keskiyön Tango
TTITLE1=Jos Rakas Sulle Oisin
TTITLE2=Kohtalon Leikkiä
TTITLE3=Sydämesi Tyhjä Huone
TTITLE4=Hiljainen Sade Toukokuun
TTITLE5=Yö Katseessasi
TTITLE6=Kesän Muistatko Sen
TTITLE7=Vanha Viulunsoittaja
TTITLE8=Onneni
TTITLE9=Ritva
TTITLE10=Päivän Vain
TTITLE11=Minkä Vuoksi
TTITLE12=Sydänsuruja
TTITLE13=Nainen
EXTD=
EXTT0=
EXTT1=
EXTT2=
EXTT3=
EXTT4=
EXTT5=
EXTT6=
EXTT7=
EXTT8=
EXTT9=
EXTT10=
EXTT11=
EXTT12=
EXTT13=
PLAYORDER=
